<!DOCTYPE svg PUBLIC "-//W3C//DTD SVG 1.1//EN" "http://www.w3.org/Graphics/SVG/1.1/DTD/svg11.dtd">
<svg xmlns="http://www.w3.org/2000/svg" viewBox="0 0 736 779">
<path fill="#10232d" d="M351.925 10.92c-18.558 2.594-33.021 11.067-44.037 25.796-2.434 3.255-4.426 5.015-5.298 4.68-1.903-.73-17.485 2.04-31.524 5.603-51.257 13.011-101.313 39.757-139.992 74.802l-6.427 5.823 8.411 9.438c4.625 5.191 14.045 15.288 20.931 22.438 6.887 7.15 19.207 20.081 27.377 28.736l14.855 15.736-11.249 11.764c-6.187 6.47-15.114 16.601-19.838 22.514-4.724 5.912-8.845 10.75-9.158 10.75-1.164 0-34.458-27.591-44.476-36.857-2.2-2.035-6.225-5.487-8.945-7.671-2.72-2.185-10.581-8.837-17.469-14.783-11.331-9.782-12.645-10.645-13.797-9.07-1.051 1.437-.995 2.049.322 3.503 1.954 2.16 2.581.786-7.611 16.689-9.464 14.767-11.561 18.68-22.341 41.689-8.747 18.669-15.535 37.564-20.3 56.5-1.869 7.425-4.384 16.517-5.59 20.205-1.206 3.688-1.984 6.907-1.731 7.154.473.461 42.29 8.641 44.17 8.641.645 0 .789 1.237.376 3.25-3.984 19.447-5.075 65.065-2.14 89.459.505 4.2.498 4.211-3.219 4.832-2.049.342-13.175 2.498-24.725 4.79l-21 4.169.284 3c.156 1.65.681 5.025 1.168 7.5.486 2.475 1.411 8.55 2.056 13.5 2.024 15.548 5.965 30.67 18.63 71.5 5.106 16.46 16.145 40.817 23.625 52.129l5.044 7.629 6.821-5.572c7.431-6.071 7.86-6.763 3.07-4.955-4.045 1.527-3.663 1.995-12.026-14.731-14.684-29.369-24.105-57.081-30.598-90-1.35-6.848-3.698-25.812-3.23-26.094.872-.526 32.815-6.407 34.795-6.407 2.263.001 2.734.535 3.309 3.751 6.497 36.347 25.04 87.69 39.966 110.662 1.819 2.799 5.335 8.274 7.816 12.168 5.021 7.882 18.377 25.214 27.68 35.92 7.204 8.29 6.973 7.089 2.307 12.01C129.69 632.505 107 657.877 107 658.418c0 1.253 3.108.468 7.596-1.918 5.22-2.776 7.418-3.086 9.204-1.3.66.66 1.2.853 1.2.429 0-1.51 2.803 2.065 5.008 6.388 1.233 2.415 3.363 5.273 4.734 6.352 1.371 1.079 3.032 3.242 3.69 4.808l1.197 2.847 2.242-2.387 2.243-2.387-6.001-5.724c-3.301-3.148-6.783-6.296-7.739-6.995-1.581-1.155-1.116-1.988 5.103-9.151 15.395-17.73 16.193-18.483 17.674-16.685 7.496 9.107 40.82 35.478 60.349 47.757 14.142 8.892 43.891 24.105 58 29.66 6.05 2.382 11.119 4.388 11.264 4.457.146.07-.651 3.233-1.77 7.029-10.426 35.354-10.32 34.784-6.244 33.728 3.676-.953 4.742-.86 11.75 1.023 3.3.887 9.103 2.047 12.895 2.577 3.792.53 7.37 1.439 7.95 2.019 1.972 1.972 2.555 1.063 3.248-5.066l.693-6.121 5.107.596c39.016 4.55 77.46 3.15 110.857-4.036 14.997-3.227 14.184-1.698 10.224-19.238-2.767-12.258-2.739-12.555 1.267-13.531 29.011-7.067 79.797-34.837 110.504-60.425 7.644-6.369 9.015-7.164 10.053-5.83 1.884 2.422 20.966 24.859 23.264 27.353 1.134 1.231 2.934 3.876 4 5.877l1.938 3.637-3 2.478c-34.792 28.735-81.554 54.24-121 65.995-4.11 1.225-5.301 1.9-3.782 2.143 2.136.341 26.853-7.788 40.282-13.248 21.285-8.654 49.163-23.337 62.264-32.794 4.27-3.082 10.159-6.974 13.086-8.649 2.927-1.675 7.371-4.849 9.876-7.054 2.505-2.205 6.685-4.922 9.287-6.038 2.603-1.115 6.815-4.191 9.36-6.835 2.545-2.643 5.752-5.682 7.127-6.754 1.375-1.071 7.98-7.659 14.677-14.639 11.045-11.512 17.847-19.612 28.533-33.977 2.041-2.743 5.683-6.238 8.094-7.767 4.561-2.892 6.236-5.155 11.86-16.022 4.188-8.092 7.442-15.432 10.484-23.648 1.294-3.493 3.452-9.329 4.795-12.967 1.344-3.638 3.569-8.25 4.943-10.25 4.892-7.115 10.627-20.726 12.648-30.016 1.122-5.159 2.966-11.909 4.097-15 2.696-7.366 4.394-14.403 6.423-26.619.913-5.5 2.583-13.6 3.71-18 1.933-7.543 2.038-10.512 1.832-52-.119-24.2-.655-48.035-1.191-52.966-2.655-24.448-5.466-37.101-10.893-49.034-6.736-14.813-8.317-17.534-12.744-21.933-4.254-4.229-10.446-16.095-11.588-22.209-.323-1.728-1.994-5.328-3.715-8-4.52-7.02-3.751-18.08 1.598-22.98 2.492-2.282 3.437-3.995 3.437-6.231 0-3.464-7.046-17.974-10.048-20.69-2.828-2.56-2.41-.981 1.433 5.412 4.553 7.574 7.615 13.763 7.615 15.39 0 1.101-5.093 3.741-7.216 3.741-.315 0-3.073-4.388-6.127-9.75-3.055-5.363-9.389-15.818-14.075-23.235l-8.519-13.485 2.968-3.062c3.244-3.347 3.64-5.168 1.702-7.819-1.174-1.605-1.487-1.525-4.25 1.092-1.641 1.554-10.746 9.708-20.233 18.12-9.487 8.411-17.25 15.649-17.25 16.082 0 1.109-41.812 38.004-43.109 38.04-.334.009-4.328-4.527-8.874-10.082-4.545-5.554-13.878-15.893-20.739-22.974l-12.475-12.876 16.349-17.288C575.948 154.254 599 128.479 599 126.671c0-2.257-23.543-21.43-40.259-32.787-38.825-26.376-86.656-45.834-126.457-51.443-5.931-.836-11.74-1.283-12.909-.993-1.636.406-2.699-.333-4.615-3.21C401.891 18.92 375.808 7.58 351.925 10.92m-.205 17.33c-5.294 8.318-5.297 8.389-.518 15.436L355.484 50l7.258.15c3.992.082 7.685.195 8.206.25.522.055 2.695-2.24 4.829-5.101 2.134-2.861 4.892-6.02 6.128-7.021 5.291-4.284-1.026-12.397-11.004-14.135-13.316-2.319-15.371-1.878-19.181 4.107m32.963 2.5c.991 2.794 3.549 5.326 7.33 7.256 5.157 2.632 8.669 6.561 10.573 11.831 1.627 4.5 5.458 9.163 7.528 9.163.552 0-.463-2.752-2.256-6.115-5.806-10.894-26.043-30.222-23.175-22.135M340.5 39.981c-1.1.462-5.037 1.163-8.75 1.559l-6.749.718-1.501 5.053c-.825 2.778-1.5 8.15-1.5 11.937 0 5.736-.403 7.417-2.417 10.069-1.329 1.751-3.152 5.032-4.052 7.292-.899 2.26-2.737 4.698-4.083 5.419-1.346.72-2.448 1.838-2.448 2.484 0 2.173 3.763 11.949 6.346 16.488 2.516 4.421 13.202 15.807 14.024 14.941 1.395-1.469-3.202-15.977-6.491-20.481-7.91-10.836-8.399-13.828-3.703-22.64l3.177-5.959 5.073.622c2.791.342 6.908.862 9.149 1.157l4.076.535 6.594-9.268 6.595-9.267-4.479-5.82c-4.55-5.914-5.312-6.33-8.861-4.839m-20.65 3.448c-7.737 9.1-11.792 20.178-11.833 32.321-.026 7.969 1.941 6.779 8.32-5.034 3.109-5.759 3.663-7.735 3.663-13.069 0-3.456.706-8.66 1.568-11.564 1.893-6.376 1.7-6.675-1.718-2.654m43.488 9.36-8.161.289-6.248 8.599-6.248 8.599 3.287 9.776 3.287 9.776 7.884 3.553 7.884 3.553 4.739-2.766c2.606-1.521 6.186-3.355 7.955-4.075 4.605-1.873 5.413-3.232 7.336-12.346l1.72-8.146-4.805-4.32c-2.643-2.376-6.08-6.224-7.637-8.551L371.5 52.5l-8.162.289M272.5 61.963c-42.668 11.175-92.286 37.112-120.976 63.238l-4.975 4.531 9.791 11.604 9.791 11.604 6.474-5.492c29.891-25.357 82.143-51.874 112.145-56.91 4.9-.823 4.78-.297 3.181-13.925-.588-5.012-1.291-11.025-1.561-13.363-.58-5.008.097-4.945-13.87-1.287m129.357.839c-1.8 2.762-3.538 3.967-7.357 5.1-2.75.816-5.149 1.583-5.33 1.704-.322.215-4.183 17.25-4.157 18.343.007.303 2.482 2.101 5.5 3.996S396 95.946 396 96.624c0 3.385 7.202 5.829 10.638 3.611 1.156-.747 5.137-9.715 7.295-16.433 2.308-7.185-1.726-21.255-6.692-23.343-2.917-1.226-3.112-1.142-5.384 2.343m35.262 6.905c-.669 5.936-1.47 12.862-1.781 15.391l-.564 4.597 6.363 1.232c30.658 5.932 74.47 27.255 106.953 52.054l11.591 8.848 8.659-10.854c4.763-5.97 8.66-11.309 8.66-11.865 0-2.118-23.289-20.306-37.5-29.286-29.645-18.734-67.312-34.21-98.082-40.299l-3.083-.61-1.216 10.792m-92.985 24.768c-1.852 1.309-5.824 3.426-8.826 4.703l-5.459 2.322.562 5.063c1.092 9.829 1.893 10.932 10.452 14.382 10.92 4.402 13.726 4.677 20.926 2.052 6.809-2.483 7.748-3.732 5.731-7.622-.767-1.477-1.939-5.735-2.605-9.463l-1.211-6.777-7.102-3.185c-3.906-1.752-7.552-3.336-8.102-3.521-.55-.184-2.515.736-4.366 2.046m51.018 11.775c-4.201 6.787-14.411 13.569-21.133 14.038-2.755.192-5.12 2.944-3.727 4.337.827.827 12.992-3.669 18.654-6.894 5.859-3.337 15.054-11.612 15.054-13.547 0-2.857-6.782-1.273-8.848 2.066m-141.167 13.5c-.02 6.076-.336 6.501-7.291 9.791-6.437 3.045-6.374 3.577.647 5.467 5.76 1.55 6.149 2.301 4.913 9.478-1.09 6.326-1.053 6.364 2.928 3.014 3.79-3.189 5.166-3.145 7.836.25 2.76 3.509 3.254 3.296 4.525-1.946l1.042-4.304 5.824-.5 5.824-.5-2.219-1.998c-4.895-4.407-5.763-11.484-1.97-16.055 2.006-2.417.392-2.784-4.668-1.059-6.665 2.27-7.489 2.105-11.876-2.388-4.977-5.097-5.497-5.026-5.515.75m212.75-.124-4.765 4.772-6.485-2.108c-7.262-2.361-7.498-2.119-4.457 4.582 2.112 4.655 1.037 8.339-3.54 12.138-2.73 2.266-1.651 3.242 2.838 2.568 6.451-.967 7.45-.221 8.247 6.157l.695 5.569 3.471-4.179 3.471-4.178 4.395 2.456c4.688 2.62 4.902 2.496 3.478-2.004-2.095-6.621-2.194-8.399-.468-8.399 2.753 0 9.385-2.257 9.385-3.194 0-.482-1.975-1.724-4.39-2.759-5.405-2.317-5.803-2.944-6.528-10.297l-.582-5.896-4.765 4.772M211.83 142.01c.595 6.246-.352 8.206-6.001 12.424-2.891 2.158-4.822 4.04-4.293 4.181.53.142 3.542.767 6.693 1.388 5.556 1.096 5.763 1.253 6.822 5.188 2.65 9.841 2.742 9.9 5.896 3.785l2.825-5.476 6.182.179 6.182.178-1.756-2.678c-4.669-7.122-4.704-7.784-.807-15.321l1.618-3.128-2.846.667c-9.102 2.131-10.65 1.944-15.004-1.811-5.282-4.554-5.981-4.5-5.511.424m296.302.49c-4.321 3.903-5.56 4.107-12.382 2.037-5.467-1.659-5.433-1.724-2.633 5.032l2.117 5.107-3.656 4.79c-4.396 5.759-4.347 5.839 2.859 4.709 6.344-.995 6.091-1.174 10.369 7.325l2.014 4 .662-3c1.887-8.542 3.416-10.379 9.66-11.608 6.538-1.286 7.009-1.908 3.291-4.344-5.55-3.637-6.433-5.221-6.433-11.548 0-6.972-.624-7.238-5.868-2.5m-167.632.628c-10.731 1.12-22.06 2.982-23.479 3.859-1.005.621-.47 4.702 2.507 19.151 2.081 10.099 3.996 19.641 4.255 21.204.38 2.295.88 2.748 2.594 2.35 16.321-3.791 20.542-4.652 22.893-4.67l2.771-.022-.271-20.636c-.313-23.899.451-22.46-11.27-21.236m22.5 19.168V182.9l15.25.3c8.387.165 15.482-.006 15.765-.379.835-1.101 8.222-36.917 7.718-37.421-1.034-1.034-13.027-2.482-25.483-3.076l-13.25-.632v20.604m47.034-.151c-4.744 22.07-4.792 22.654-1.909 23.223 1.306.258 6.425 1.237 11.375 2.175 4.95.939 9.963 1.918 11.14 2.177 2.234.492 4.256-3.729 10.882-22.72 1.247-3.575 2.571-7.243 2.942-8.151.775-1.897-10.533-6.734-21.914-9.374-3.533-.819-7.058-1.733-7.832-2.03-1.093-.419-2.139 2.862-4.684 14.7M301 150.69c-.825.292-6.675 2.325-13 4.517-6.325 2.193-11.855 4.32-12.288 4.728-.754.709 2.852 12.029 10.662 33.473 4.135 11.353 4.09 11.282 6.038 9.665.803-.667 5.8-3.166 11.103-5.555 5.304-2.388 9.865-4.564 10.135-4.835.271-.271-.687-5.823-2.128-12.338-7.049-31.85-6.745-30.994-10.522-29.655m153.523 12.491c-6.416 18.1-9.496 27.169-9.285 27.337.317.254 18.253 3.312 21.721 3.704 2.166.245 1.601.931-4.75 5.768-3.965 3.019-7.209 5.719-7.208 6 .001.28 2.363 1.82 5.25 3.421 2.887 1.601 7.161 4.264 9.497 5.918 2.337 1.654 4.384 2.819 4.549 2.589.165-.23 2.118-2.668 4.341-5.418 4.974-6.155 17.404-23.446 18.033-25.086.439-1.144-8.108-7.214-22.827-16.21-12.655-7.734-18.555-10.184-19.321-8.023m-202.9 8.313c-5.923 3.592-13.453 8.353-16.733 10.581l-5.965 4.05 3.213 5.688c1.768 3.128 5.676 9.737 8.686 14.687 3.01 4.95 8.15 13.41 11.423 18.8l5.951 9.799 1.651-3.051c2.828-5.227 10.04-13.635 15.163-17.677 2.699-2.129 4.926-4.609 4.948-5.511.06-2.461-15.438-43.186-16.58-43.567-.543-.181-5.834 2.61-11.757 6.201M670 196c.589 1.1 1.295 2 1.57 2 .275 0 .019-.9-.57-2s-1.295-2-1.57-2c-.275 0-.019.9.57 2m-461.358 8.917-10.049 9.916 6.439 7.834c11.413 13.883 38.768 45.922 40.282 47.179 1.198.994 2.009.677 4.405-1.719 3.898-3.898 4.35-20.361.704-25.627-1.143-1.65-8.274-13.012-15.848-25.25-7.573-12.238-14.245-22.25-14.826-22.25-.582 0-5.58 4.463-11.107 9.917M501 201.203c-2.475 3.4-7.312 10-10.75 14.668-7.397 10.044-7.292 9.474-2.258 12.349 5.083 2.903 5.046 3.78-.16 3.78-4.003 0-15.785 1.639-18.766 2.611-.987.322.601 2.561 5.091 7.178 3.589 3.691 8.202 8.82 10.252 11.397l3.728 4.687 18.931-20.683C517.481 225.814 526 216.002 526 215.385c0-1.039-18.258-19.591-19.806-20.124-.382-.131-2.719 2.543-5.194 5.942m-141.5-4.145c-44.646 4.385-85.68 26.312-91.425 48.856-1.669 6.55-2.274 12.086-1.319 12.086 2.439 0 13.357-4.429 18.566-7.532 7.055-4.203 7.112-4.208 5.204-.518-2.028 3.921-1.924 5.05.463 5.05 3.142 0 11.8 3.602 15.57 6.477l3.44 2.624 9.251-3.687c5.087-2.029 17.125-7.175 26.75-11.437 35.229-15.599 52.018-19.005 69.5-14.1 6.343 1.78 7.175 2.752 2.944 3.438-2.041.332-6.968 1.57-10.949 2.751l-7.238 2.149-.499 6.143c-.958 11.796-7.654 21.498-18.532 26.85-13.684 6.733-31.071 4.136-41.726-6.232l-4-3.892-7.802 3.671-7.802 3.672.609 4.037c1.396 9.259 6.01 12.088 26.154 16.035 17.858 3.499 26.357 5.96 33.67 9.751l6.171 3.199-7.183.906c-6.581.831-7.281 1.145-8.361 3.751-3.909 9.438-18.776 16.927-45.456 22.896-5.5 1.231-10.151 2.372-10.335 2.536-.184.164 1.278 5.173 3.249 11.13 3.074 9.295 5.98 23.138 5.069 24.15-.287.32-6.368-8.707-8.199-12.171-.741-1.403-1.143.176-1.654 6.5-.86 10.654-2.692 20.205-3.675 19.161-.419-.444-3.459-8.683-6.757-18.308-8.644-25.234-7.812-23.5-10.442-21.754-1.363.905-3.257 4.454-4.941 9.257-3.146 8.972-13.945 29.104-24.077 44.887C256.166 411.185 243 435.987 243 438.456c0 1.095 3.798-.449 13.487-5.486 7.418-3.855 14.565-7.419 15.881-7.92l2.394-.91-1.302 4.326c-4.16 13.822-5.897 47.625-2.939 57.201 2.14 6.931 45.28-32.845 54.081-49.863 1.582-3.06 3.398-3.722 3.398-1.241 0 8.151 31.222 65.856 33.967 62.779C374.899 482.846 399 438.014 399 428.454c0-2.782 1.568-1.288 10.535 10.046 14.652 18.518 29.507 35.225 38.301 43.076 6.288 5.614 6.242 5.648 9.074-6.576 4.361-18.826 4.874-39.235 1.48-58.888-.796-4.613-1.277-8.559-1.067-8.768.21-.21 9.527 6.405 20.704 14.701 23.862 17.709 22.584 17.766 21.595-.963-1.139-21.576-4.886-39.298-12.105-57.258-2.566-6.382-3.872-10.815-3.184-10.803.642.012 5.854 2.488 11.582 5.502 5.728 3.014 10.519 5.367 10.646 5.229 1.249-1.36-10.063-32.734-16.272-45.132-7.261-14.499-26.124-39.626-34.975-46.588-1.812-1.425-2.113-2.032-1.006-2.032 2.395 0 21.908 6.559 26.535 8.92 4.961 2.531 5.284 2.553 4.375.307-6.777-16.738-32.679-42.677-54.86-54.937l-6.858-3.79 7.416-.297c4.079-.164 9.614.174 12.3.75 9.9 2.123 10.774-.577 2.332-7.203-16.559-12.997-52.561-19.98-86.048-16.692M70.35 218.782c-7.94 13.011-17.419 31.546-22.981 44.935-6.779 16.317-16.283 46.703-15.007 47.978.519.519 30.945 7.386 31.151 7.031.073-.124 1.085-3.871 2.25-8.327 5.657-21.64 20.644-56.025 32.962-75.623l6.026-9.587-12.779-9.095c-7.028-5.002-13.159-9.08-13.625-9.062-.466.018-4.065 5.305-7.997 11.75m566.75-2.891c-13.92 10.221-13.509 8.984-6.882 20.743 7.523 13.349 13.847 26.129 18.706 37.806C653.629 285.744 663 314.196 663 317.176c0 1.363.477 1.855 1.441 1.485.792-.304 6.53-1.737 12.75-3.185 20.798-4.84 19.104-4.074 18.336-8.296-2.134-11.724-17.433-50.056-25.815-64.68-9.867-17.215-19.79-32.851-21.457-33.81-.415-.239-5.435 3.001-11.155 7.201m-121.054 28.14c-23.049 25.091-21.576 22.965-19.045 27.47 1.117 1.99 3.73 6.629 5.806 10.308 2.075 3.68 4.373 8.153 5.105 9.941.732 1.788 1.614 3.226 1.959 3.197 1.365-.115 47.193-33.115 48.982-35.27 1.543-1.859.804-3.502-5.257-11.677-4.288-5.783-18.695-24-18.981-24-.092 0-8.448 9.014-18.569 20.031m-330.092-12.474c-2.916 3.666-8.589 11.159-12.606 16.651l-7.304 9.987 6.728 5.256c3.7 2.891 15.278 11.456 25.728 19.033 10.45 7.577 20.688 15.089 22.75 16.693 2.358 1.834 3.75 2.419 3.75 1.574 0-1.71 8.409-15.448 11.478-18.751l2.322-2.5-9.513-11c-5.232-6.05-14.807-17.3-21.279-25-6.472-7.7-12.888-15.037-14.259-16.303l-2.492-2.304-5.303 6.664m194.374 16.195c-3.406 1.31-4.282 2.189-4.77 4.789-1.199 6.39-10.2 9.906-14.245 5.564-1.751-1.878-2.363-1.989-5.394-.975-5.054 1.69-5.292 2.273-2.356 5.762 10.117 12.024 30.895 4.686 32.228-11.382.502-6.059.508-6.055-5.463-3.758m-106.841 22.047c-28.431 9.831-44.142 40.444-35.356 68.89 1.751 5.669 11.073 21.319 12.691 21.306.373-.003.713-2.816.756-6.25.252-20.084 26.427-40.632 63.922-50.18 5.5-1.401 10.877-2.551 11.95-2.556 3.047-.014.622-1.464-5.583-3.337-7.986-2.411-10.606-4.904-14.85-14.134-4.071-8.854-7.874-12.849-13.798-14.494-5.52-1.533-14.06-1.206-19.732.755m-120 11.771c-3.106 6.364-5.437 12.117-5.181 12.785.514 1.341 71.198 39.645 73.158 39.645.048 0 .107-4.837.13-10.75l.043-10.75-7.569-5.08c-12.337-8.28-32.864-22.578-43.435-30.255-5.427-3.941-10.235-7.165-10.683-7.165-.449 0-3.357 5.207-6.463 11.57m406.013-7.207c-3.3 2.361-14.1 10.125-24 17.254a20876.73 20876.73 0 0 1-24.223 17.422c-3.423 2.454-6.236 4.9-6.25 5.436-.023.818 4.89 14.328 5.585 15.36.229.341 36.604-18.143 57.138-29.034 6.188-3.282 11.232-6.492 11.21-7.134-.064-1.886-11.365-23.052-12.46-23.336-.55-.143-3.7 1.671-7 4.032M111.694 279c-2.053 2.75-4.287 5.044-4.963 5.097-2.699.212-9.337-.238-11.087-.753-1.381-.406-.791.963 2.312 5.363l4.167 5.909-1.628 4.442c-3.202 8.74-3.234 8.375.554 6.417 7.555-3.907 8.678-3.811 14.041 1.206l4.91 4.593.015-5.887c.019-7.151.261-7.531 6.235-9.771 2.613-.98 4.75-2.186 4.75-2.679 0-.494-2.137-1.92-4.75-3.168-4.946-2.362-9.117-8.486-9.209-13.519-.061-3.369-1.226-2.77-5.347 2.75m497.769-1.25c-1.303 7.794-1.865 8.576-8.538 11.883l-6.425 3.186 3 1.107c1.65.609 4.688 1.844 6.75 2.743l3.75 1.635v14.128l5.25-5.102 5.25-5.103 6.25 1.808c3.438.994 6.25 1.66 6.25 1.479 0-.181-1.179-2.601-2.619-5.378-2.978-5.739-2.752-8.354 1.119-12.953 3.437-4.086 3.33-4.185-3.797-3.52l-6.296.588-3.909-5.125c-4.67-6.123-5.22-6.249-6.035-1.376m-323.24 4.807c-1.52 1.064-2.223 2.582-2.223 4.8 0 4.596 1.803 6.108 4.02 3.37.968-1.195 3.016-2.214 4.611-2.294 3.41-.171 3.506-2.868.202-5.683-2.528-2.154-3.76-2.19-6.61-.193m211.011 16.48c1.74 4.267 2.607 4.481 6.266 1.547 3.601-2.886 3.262-3.381-2.891-4.224l-4.733-.649 1.358 3.326M562 317.37c-45.244 23.586-47.191 24.695-46.477 26.474.366.911 1.592 6.003 2.726 11.315 1.239 5.808 2.497 9.513 3.156 9.291.602-.202 10.995-2.655 23.095-5.449 12.1-2.795 28.182-6.638 35.739-8.541 7.556-1.903 13.996-3.46 14.311-3.46 1.687 0-5.268-27.654-9.222-36.669l-1.828-4.169L562 317.37m-419.328-9.62c-2.747 4.62-11.323 38.036-10.055 39.18 1.034.934 31.845 8.53 69.383 17.106 14.575 3.33 31 7.116 36.5 8.413 18.207 4.295 17.879 4.306 11-.357-8.514-5.773-13.661-10.727-17.993-17.323-3.289-5.006-4.666-6.137-10.886-8.938-8.119-3.656-62.303-31.059-70.621-35.716-5.879-3.291-6.633-3.534-7.328-2.365m194.158 2.794c-21.147 3.294-39.872 10.616-51.08 19.973-8.262 6.896-8.545 8.179-1 4.531 7.422-3.589 22.233-8.854 39.38-13.999 14.907-4.473 23.2-7.626 26.944-10.247l2.426-1.697-4 .044c-2.2.025-7.902.652-12.67 1.395m352.83 20.461c-11.462 2.113-21.058 4.06-21.326 4.327-.267.268.244 6.265 1.137 13.327 2.626 20.785 3.025 44.167 1.112 65.214-.919 10.105-1.538 18.474-1.377 18.597.162.123 3.219.705 6.794 1.294 3.575.59 14.548 2.473 24.384 4.186 9.837 1.713 18.012 2.987 18.168 2.832.762-.763 2.402-21.241 2.985-37.282.828-22.746-1.514-56.75-5.112-74.25-.611-2.967-1.447-2.912-26.765 1.755m-423.559 15.294c-1.526 1.526-1.299 13.553.324 17.201.939 2.108 1.488 2.554 1.847 1.5.282-.825 1.739-5.009 3.239-9.298 1.5-4.289 2.509-8.015 2.244-8.281-1.361-1.36-6.641-2.135-7.654-1.122M567.5 366.014c-15.95 3.752-35.637 8.321-43.749 10.154-8.112 1.832-14.749 3.678-14.75 4.102 0 .423 1.163.558 2.587.3 2.041-.37 2.46-.138 1.985 1.1-1.299 3.386 3.327 5.6 10.427 4.993 7.95-.68 50.598-5.271 65-6.997l10.5-1.258-.19-4.454c-.313-7.33-1.408-14.961-2.132-14.857-.373.053-13.728 3.166-29.678 6.917M73 361.187c0 .457 1.808 5.063 4.018 10.235l4.017 9.404-1.635 4.837c-.899 2.66-2.738 7.019-4.085 9.686-3.175 6.286-3.062 6.323 6.639 2.171l8.241-3.527 5.05 2.536c2.778 1.395 6.784 3.91 8.903 5.588 4.647 3.681 4.66 3.527.738-8.655-3.706-11.511-3.543-13.529 2.037-25.157 2.191-4.568 3.814-8.305 3.605-8.305-.208 0-4.101 1.8-8.651 4-10.206 4.936-11.779 4.949-21.272.178-4.183-2.102-7.605-3.448-7.605-2.991m55.673 1.063c-.299 1.238-.849 5.45-1.224 9.362l-.68 7.112 9.365 1.132c5.151.623 18.591 2.045 29.866 3.16 11.275 1.115 35.118 3.624 52.984 5.575l32.485 3.548 1.805-2.229c2.953-3.647 7.98-2.311-63.774-16.95-16.5-3.366-36.464-7.659-44.364-9.54-17.037-4.057-15.787-3.968-16.463-1.17M617 360.96c0 .607 1.311 4.578 2.913 8.822 4.426 11.722 4.406 11.434 1.53 21.942-4.427 16.181-4.516 15.357 1.147 10.641 9.667-8.049 11.69-8.494 22.529-4.955 4.06 1.325 7.499 2.295 7.644 2.154.145-.141-1.36-3.813-3.344-8.16-4.302-9.427-4.211-11.716.885-22.415 1.955-4.105 3.437-7.581 3.294-7.724-.144-.144-4.457 1.558-9.586 3.783l-9.325 4.044-6.465-2.748c-3.556-1.511-7.535-3.589-8.844-4.618-1.308-1.029-2.378-1.374-2.378-.766m-34 31.625c-71.917 7.179-72.126 7.205-69.632 8.601 3.276 1.833 4.917 6.755 5.857 17.564.059.688.51 1.25 1.001 1.25.49 0 .614.45.274 1-.34.55.196 1.007 1.191 1.015 1.423.012 1.514.203.426.892-1.711 1.083.128 1.489 16.383 3.62 6.6.865 22.283 3.155 34.85 5.089 12.568 1.934 23.046 3.321 23.285 3.083 1.096-1.097 2.617-14.565 3.212-28.45.635-14.828.598-15.248-1.347-15.131-1.1.066-8.075.726-15.5 1.467M126.298 405.75c.924 21.009 2.395 29.347 5.072 28.766 5.347-1.161 79.725-10.58 95.406-12.082 6.322-.606 7.512-1.041 9.078-3.316 2.762-4.012 9.372-16.226 8.987-16.606-.187-.186-18.116-1.94-39.841-3.899-61.246-5.523-73.893-6.613-76.702-6.613h-2.605l.605 13.75M211 435.078c-37.023 5.098-77.913 11.502-78.743 12.332-.531.531 1.75 11.983 2.689 13.503.738 1.194 4.048.59 67.554-12.327 9.35-1.902 18.598-3.715 20.552-4.03 3.612-.582 4.094-1.281 6.428-9.306.805-2.765.382-2.769-18.48-.172m307.476 1.518c5.052 1.85 6.518 3.272 2.85 2.766-2.391-.33-2.518-.244-.826.554 1.382.652 1.536.97.5 1.029-1.333.076-1.333.193 0 1.055 1.244.804 1.159.975-.5 1-1.659.025-1.744.196-.5 1 .825.533 1.05.986.5 1.007-6.145.229 19.669 7.024 47.5 12.503 4.675.92 11.619 2.526 15.43 3.568 3.812 1.042 7.129 1.696 7.372 1.453 1.061-1.06 4.113-14.007 3.442-14.595-1.177-1.03-76.223-13.226-79.168-12.866-.317.039 1.213.726 3.4 1.526M665.56 455.25c-3.394 30.352-16.294 69.427-33.369 101.073-3.508 6.502-6.224 11.943-6.035 12.09.722.562 24.454 14.387 26.615 15.505 2.479 1.283 4.661.589 3.591-1.142-.404-.653-.205-.797.5-.361.644.398.912 1.142.595 1.654-.316.512-.072.931.543.931s.871.399.57.887c-.966 1.562 2.018 3.319 3.185 1.875 5.426-6.71 22.583-45.72 29.142-66.262 6.941-21.737 15.72-63.217 13.788-65.148-.434-.434-35.75-7.288-37.806-7.337-.341-.008-.935 2.798-1.319 6.235M205 459.459c-19.091 4.304-62.047 14.625-64.171 15.417-1.499.56-1.363 1.421 1.322 8.37 2.518 6.514 3.261 7.607 4.671 6.869.923-.483 8.653-2.984 17.178-5.558 35.632-10.759 42.817-12.892 49-14.547 6.916-1.851 7.208-2.202 9.379-11.26.828-3.453 1.136-3.466-17.379.709m315 2.041c1.023 1.232.945 1.5-.437 1.5-.924 0-1.422.419-1.106.931.317.512.118 1.213-.441 1.559-1.684 1.041-1.212 3.799.536 3.128.854-.327 1.302-.19.996.304-.714 1.156 7.865 4.353 33.952 12.652a36855.03 36855.03 0 0 1 24.249 7.721c1.787.572 3.462.828 3.721.568 1.171-1.17 5.402-13.823 4.755-14.216-.399-.243-11.75-3.17-25.225-6.506-40.336-9.985-43.423-10.56-41-7.641m-424.37 1.75c-.331 1.238-.609 4.124-.616 6.414-.014 4.096-.125 4.226-6.764 7.954l-6.75 3.79 6.918 2.089c7.612 2.298 7.922 2.684 9.253 11.49l.829 5.488 3.305-5.161c4.767-7.443 5.092-7.619 11.794-6.38 7.138 1.319 7.238 1.204 3.475-3.991-3.746-5.17-3.826-7.347-.489-13.317 2.937-5.254 3.064-5.161-4.183-3.055-5.978 1.738-7.796 1.011-12.534-5.012-2.477-3.148-3.458-3.22-4.238-.309m530.566 3.257-5.304 4.775-6.946-2.026c-3.82-1.114-6.946-1.84-6.946-1.613 0 .228 1.324 3.038 2.943 6.245l2.943 5.83-3.474 5.276c-4.207 6.388-4.199 6.4 3.314 4.647l6.016-1.403 3.379 5.87c4.022 6.988 4.426 7.124 5.28 1.787 1.239-7.748 2.91-9.659 9.599-10.975 6.889-1.355 7.25-1.985 2.733-4.776-6.082-3.759-7.592-6.147-7.926-12.532l-.307-5.881-5.304 4.776m-221.485 1.536c-.895 6.464-5.253 20.954-9.745 32.405-4.346 11.077-4.483 11.98-1.062 6.987 4.87-7.107 13.63-37.563 12.077-41.989-.455-1.298-.839-.513-1.27 2.597M208 485.017c-3.575 1.601-14.788 6.116-24.917 10.033-17.329 6.702-29.018 11.551-29.85 12.384-.527.527 4.538 10.306 5.714 11.033.541.335 2.741-.287 4.887-1.382 3.426-1.748 27.712-12.426 51.666-22.715 12.926-5.552 12.94-5.562 13.084-9.146.161-3.975-.554-3.996-7.253-.215L216 488.017v-3.008c0-3.627.116-3.627-8 .008m300.928-.603c.929 1.118.694 1.879-1.127 3.647-1.266 1.228-1.626 1.876-.801 1.439 1.196-.632 1.255-.529.292.512-1.388 1.498 3.495 4.373 17.822 10.493 14.753 6.302 19.157 8.256 30.265 13.429 12.978 6.044 11.023 5.943 14.079.728 4.362-7.444 5.961-6.205-21.958-17.002-14.516-5.614-38.747-14.66-39.266-14.66-.263 0 .049.636.694 1.414m-207.688 3.177c-1.792 1.413-2.96 3.052-2.595 3.643.401.649.192.784-.526.34-.956-.591-11.119 5.935-11.119 7.14 0 1.1 12.205-6.78 15.327-9.895 4.366-4.357 3.757-5.045-1.087-1.228m-97.758 28.775C176.73 530.015 170 533.776 170 535.077c0 1.276 6.34 9.787 7.346 9.861.465.034 2.04-.773 3.5-1.794 3.107-2.174 24.746-14.381 37.599-21.212 5.779-3.071 9.242-5.557 9.784-7.022.813-2.197.59-9.424-.318-10.332-.246-.246-11.239 5.058-24.429 11.788M501 509c0 .55.411 1 .913 1s.697 1.367.434 3.037c-.384 2.434.122 3.598 2.545 5.862C507.3 521.149 548.007 545 549.438 545c.547 0 6.562-9.217 6.562-10.056 0-1.362-51.97-26.938-54.75-26.943-.137-.001-.25.449-.25.999m-229.279 17.125c-3.728.48-8.341 1.525-10.25 2.323l-3.471 1.45V546.845l3.25 1.064c9.198 3.011 29.742 4.235 43.091 2.568l5.659-.707v-6.326c0-3.479.45-6.604 1-6.944.628-.388 1 1.823 1 5.941 0 7.082 1.752 8.665 5.473 4.943 1.822-1.821 1.927-11.384.126-11.384-.574 0-.044-.701 1.178-1.557 9.674-6.775-19.275-11.892-47.056-8.318m145.826-.014c-3.274.477-7.436 1.357-9.25 1.956L405 529.155V547.102l3.532 1.476c1.942.811 8.129 1.914 13.75 2.45 9.436.9 14.356.789 28.468-.64l5.25-.532v-6.928c0-5.929.252-6.929 1.75-6.934 8.358-.026 12.231-4.85 5.989-7.459-7.648-3.195-32.093-4.478-46.192-2.424m-288.047 2.1c-6.024 3.447-8.331 8.971-9.55 22.863-1.368 15.59-1.227 16.008 6.859 20.255 21.314 11.195 32.018 10.765 38.297-1.539 4.572-8.958-.696-20.255-10.028-21.506l-4.078-.547v-5.221c0-12.09-11.73-19.895-21.5-14.305m212.108 5.844C331.519 535.746 331 536.258 331 544.527v7.285l4.688 1.597c9.495 3.236 32.713 4.205 46.062 1.924 3.228-.552 3.25-.595 3.25-6.337 0-6.237.782-7.164 5-5.928 1.375.403 1.825.784 1 .848-1.333.102-1.333.222 0 1.084 1.282.828 1.246.972-.25.985-1.572.013-2.207 1.123-1.868 3.265.065.413-.304.75-.82.75s-.868.924-.783 2.054c.187 2.478 4.383 1.926 6.524-.859 1.14-1.483.984-1.735-1.25-2.011-1.404-.174-2.553-.695-2.553-1.157 0-.462.849-.618 1.887-.346 2.322.607 3.888-1.576 1.991-2.777-1.14-.723-1.119-.879.122-.904 1.333-.027 1.333-.138 0-1-1-.646-1.083-.974-.25-.985 2.927-.036 1.292-4.847-2-5.885-9.626-3.036-37.519-4.19-50.142-2.075M209.5 546.112c-9.9 6.618-18.615 12.631-19.368 13.363-1.739 1.693 25.031 29.06 27.499 28.113.81-.311 1.228-.169.929.315-.45.728 6.653 8.097 7.806 8.097.198 0 .348-1.013.333-2.25-.015-1.237.285-3.375.668-4.75.382-1.375.568-14.294.414-28.71l-.281-26.209-18 12.031m250.75-9.406c-2.036.392-2.25 1.006-2.25 6.443v6.01l3.25-.697c1.788-.384 3.587-.896 4-1.139 1.119-.658.906-5.303-.25-5.448a111.87 111.87 0 0 0-2.25-.25c-1.137-.114-1.332-.884-.9-3.552.083-.509.938-1.132 1.9-1.384 2.252-.588-.425-.576-3.5.017m-1.171 2.877c.048 1.165.285 1.402.604.605.289-.722.253-1.585-.079-1.917-.332-.332-.568.258-.525 1.312M573 545.468v6.467l-5.5 4.153c-6.745 5.092-6.773 5.485-.46 6.323 6.191.821 8.326 2.837 10.025 9.465 1.631 6.365 1.813 6.338 5.163-.742l2.727-5.765 6.14.444 6.14.444-2.617-4.466c-3.151-5.376-3.276-8.2-.56-12.654 2.635-4.322 2.225-4.596-4.08-2.723-5.776 1.715-7.358 1.125-12.902-4.816-3.546-3.8-4.076-3.297-4.076 3.87m-59.708 1.782c.252.688.959 1.139 1.57 1.004.612-.135 1.006.715.875 1.89-.13 1.175.438 2.371 1.263 2.658 1.287.449 1.305.287.128-1.139-1.176-1.425-1.152-1.663.166-1.663.847 0 1.689.391 1.873.868.183.477 1.458 1.191 2.833 1.587 1.552.447.524-.641-2.711-2.868-5.604-3.858-6.714-4.291-5.997-2.337m7.708 7.143c0 .216.698.661 1.552.989.89.341 1.291.173.941-.393-.587-.951-2.493-1.406-2.493-.596m5 .607c.825.533 1.095.976.601.985-.494.008 1.217 1.14 3.803 2.515 6.613 3.516 6.97 3.107.872-1-2.858-1.925-5.552-3.493-5.987-3.485-.434.009-.114.452.711.985m-268 15.354v15.569l4.995 1.483c9.105 2.704 20.96 3.902 32.489 3.285 14.897-.799 14.516-.584 14.516-8.163v-6.259l-4.383.366c-3.711.309-4.464.058-4.907-1.635-.382-1.46-.008-2.034 1.384-2.125 1.048-.069 2.356-.237 2.906-.375.55-.138 1.9-.306 3-.375 1.774-.111 2-.833 2-6.39v-6.264l-15.75-.041c-14.186-.037-28.664-1.733-34.754-4.07-1.288-.494-1.496 1.587-1.496 14.994m148-8.027c0 3.501-.289 10.434-.642 15.407l-.642 9.042 5.892 1.855c7.969 2.509 42.878 2.799 44.413.369 1.63-2.579 1.221-12-.521-12-2.348 0-2.873-.129-4.877-1.202-1.369-.732-2.11-.638-2.735.349-.624.985-.862.742-.873-.897-.012-1.741.554-2.25 2.501-2.25 2.845 0 10.484-2.204 10.484-3.025 0-.296 1.165-.635 2.589-.753 3.993-.331 4.411-.954 4.411-6.58v-5.24l-3.492.407c-1.921.224-3.309.704-3.085 1.066.223.361-7.768.619-17.758.573-15.719-.074-23.248-.747-33.415-2.99-2.15-.474-2.25-.212-2.25 5.869m-93.75-3.665c-.806.326-1.25 2.649-1.25 6.546v6.042l3.2-.64c4.059-.812 4.703-1.913 4.568-7.82-.112-4.911-1.849-6.012-6.518-4.128M331 575.701v15.934l5.561 1.753c10.959 3.454 26.239 4.136 43.689 1.95l4.75-.596V582.21l-4-.381c-3.691-.352-4.008-.187-4.102 2.145-.084 2.068-.251 1.896-.92-.949-1.031-4.384-.808-4.7 3.766-5.336 2.066-.287 6.231-1.154 9.256-1.927l5.5-1.405.293-5.429.292-5.428-19.962.353c-18.694.33-32.291-.793-41.873-3.46l-2.25-.626v15.934m128.257-12.938c.093 1.23.523 2.237.956 2.237 1.043 0 .972-1.159-.184-2.987-.739-1.169-.904-1.009-.772.75m70.198-.323c-1.871 1.398-1.847 1.437.545.924 1.915-.412 2.156-.296 1.029.495-.809.568-1.139 1.364-.733 1.77 1.283 1.284 2.99-1.296 2.012-3.043-.794-1.42-1.125-1.437-2.853-.146M385 569c0 2.2.178 4 .395 4 .217 0 .567-1.8.776-4 .21-2.2.032-4-.395-4-.427 0-.776 1.8-.776 4m143-.941c0 .582.45.781 1 .441s1-.816 1-1.059-.45-.441-1-.441-1 .477-1 1.059m-216 14.508c0 3.538.204 6.433.453 6.433 3.327 0 6.211-3.336 5.592-6.469-.105-.534-.225-2.154-.266-3.602-.062-2.191-.554-2.647-2.927-2.714-2.849-.081-2.852-.074-2.852 6.352m146.269-4.874c.973.254 2.323.237 3-.037.677-.274-.119-.481-1.769-.461-1.65.02-2.204.244-1.231.498m-91.074 3.807c.02 1.65.244 2.204.498 1.231.254-.973.237-2.323-.037-3-.274-.677-.481.119-.461 1.769m22.555 1.228-3.75.393v5.346c0 4.853.184 5.298 2 4.823 1.1-.288 2-.868 2-1.29 0-.422 1.012-1.044 2.25-1.383 1.877-.515 2.001-.78.75-1.602-1.236-.811-1.251-.987-.083-1 .779-.008 1.145-.286.814-.618-.332-.331-.193-1.681.308-3 .501-1.318.585-2.321.186-2.229-.399.093-2.412.345-4.475.56m67.833 2.917c-1.051 2.738-.615 3.392 1.417 2.123 2.361-1.474 2.526-2.352.583-3.098-.78-.299-1.68.14-2 .975m154.119 1.689c-1.08 2.815-18.521 23.728-30.011 35.986l-12.016 12.82 18.079 18.053 18.08 18.053 13.583-13.275C626.888 651.67 633 645.053 633 644.265c0-1.852-2.485-1.053-2.545.818-.025.779-.588 1.304-1.25 1.167-.663-.138-1.152.087-1.087.5.354 2.237-.274 3.128-1.792 2.545-1.282-.492-1.518-.239-1.011 1.083.416 1.083.271 1.484-.389 1.076-.579-.357-1.934.149-3.013 1.124-1.502 1.36-1.663 1.964-.687 2.583.929.589.8.813-.476.824-.962.008-1.75.492-1.75 1.074 0 .582-.52.738-1.155.346-.64-.396-.885-.279-.551.262.834 1.349-2.562 4.076-4.342 3.488-1.238-.409-1.231-.207.048 1.37 1.355 1.67 1.335 1.788-.199 1.213-1.273-.476-1.544-.231-1.08.977.385 1.004.215 1.364-.45.953-.587-.363-2.103.414-3.367 1.728-2.482 2.579-4.904 2.427-4.904-.307 0-2.102 6.345-8.41 7.399-7.357.422.423.618.288.434-.3-.515-1.651 6.029-8.635 7.335-7.828.687.425.867.262.453-.409-.883-1.427 6.252-9.392 7.642-8.532.575.355.753.172.395-.407s.729-2.529 2.415-4.334c1.686-1.805 3.699-4.186 4.473-5.292.775-1.105 1.743-1.675 2.152-1.265.409.409.156 1.107-.562 1.551-1.68 1.038-1.64 1.665.287 4.607 1.062 1.621 1.171 2.265.33 1.957-2.511-.92-4.45 1.25-2.69 3.011 1.417 1.418 2.256.7 9-7.714 4.09-5.102 8.644-10.6 10.119-12.218l2.681-2.941-2.681-3.089c-4.11-4.734-37.133-30.529-39.083-30.529-.487 0-1.115.6-1.397 1.334M223.7 590.341c-.668 1.738.947 4.362 1.996 3.243.442-.472.223-1.065-.488-1.318-.992-.354-1.022-.786-.127-1.863.707-.852.765-1.403.148-1.403-.558 0-1.247.603-1.529 1.341m34.3 15.648v12.123l4.256 1.883c7.936 3.511 32.015 5.343 44.06 3.352l3.816-.63-.151-5.109c-.244-8.222-.201-8.358 2.594-8.358 3.396 0 4.686-1.437 4.892-5.449.093-1.815.529-4.102.97-5.082.727-1.616.397-1.709-3.568-1-12.27 2.193-42.714.352-55.119-3.334-1.599-.475-1.75.526-1.75 11.604m147.697-10.28c-.816 1.368-.763 22.733.06 23.978 2.509 3.8 20.353 5.817 37.227 4.208 6.334-.605 11.818-1.39 12.188-1.747.369-.356.819-5.823 1-12.148l.328-11.5H440c-14.23 0-24.219-.972-32.166-3.129-.916-.249-1.878-.097-2.137.338m53.744 2.741c-1.855 1.387-1.835 1.424.465.843 1.68-.424 2.191-.258 1.691.549-.438.709-.013 1.183 1.094 1.221 1.346.048 1.176.317-.667 1.052-2.022.807-2.205 1.159-1 1.921.836.528.974.94.32.949-.662.008-.933.87-.634 2.015 1.34 5.122 5.29 1.682 5.29-4.607 0-5.915-2.172-7.22-6.559-3.943m56.432 13.616c-38.407 29.402-37.025 28.109-32.832 30.727 2.419 1.511 2.057 1.708 13.459-7.298 4.95-3.91 16.316-12.644 25.258-19.41 18.353-13.887 17.756-13.289 16.035-16.044-1.971-3.157-2.388-2.929-21.92 12.025M188.93 600.584c-2.062 2.485-.707 3.806 19.668 19.17 10.396 7.84 21.71 16.503 25.142 19.25 7.07 5.661 7.287 5.728 9.743 3.015 2.39-2.641 2.604-2.426-17.786-17.92a8084.898 8084.898 0 0 1-25.03-19.083c-8.356-6.419-9.675-6.916-11.737-4.432m142.295 14.617.275 16.299 7 1.823c7.711 2.008 33.122 2.839 41.75 1.366l4.75-.812v-12.131l-5.051.485c-4.689.45-5.029.334-4.75-1.619.227-1.585 1.413-2.367 4.801-3.167 2.475-.584 5.767-1.598 7.315-2.253 1.548-.656 3.638-1.192 4.643-1.192 2.203 0 3.042-1.908 3.042-6.92v-3.756l-20.25.437c-20.232.436-36.724-1.071-41.874-3.827-1.87-1.001-1.918-.555-1.651 15.267m-20.146-13.618c.048 1.165.285 1.402.604.605.289-.722.253-1.585-.079-1.917-.332-.332-.568.258-.525 1.312M458 609c0 .55.45 1 1 1s1-.45 1-1-.45-1-1-1-1 .45-1 1m-156.842 5c0 1.375.227 1.938.504 1.25.278-.687.278-1.812 0-2.5-.277-.687-.504-.125-.504 1.25m13.842-.215c-2.829.971-4.534 8.215-1.934 8.215 2.732 0 4.934-2.22 4.934-4.976 0-3.21-.744-4.014-3-3.239m-138.478 3.822c-.94 1.434-1.329 2.95-.865 3.369.464.42 9.618 7.435 20.343 15.591a14620.046 14620.046 0 0 1 26.359 20.082c6.607 5.061 6.947 5.197 9.25 3.688 4.012-2.629 6.154-.576-28.109-26.926-28.032-21.558-24.546-19.516-26.978-15.804m359.978 4.878c-4.4 3.511-15.835 12.39-25.412 19.732-18.517 14.196-20.569 16.215-18.088 17.796 2.887 1.841 4.643.808 24-14.106a16787.429 16787.429 0 0 1 24.974-19.216c3.01-2.305 6.105-4.677 6.876-5.27 1.837-1.413-.141-5.444-2.635-5.37-.943.028-5.315 2.923-9.715 6.434m105.688.526c-6.105 6.44-7.111 7.989-5.188 7.989.55 0 1-.525 1-1.167 0-.641.297-.869.661-.506.363.363-.019 1.451-.848 2.417-2.574 2.996-2.84 3.989-1.391 5.191.983.816 1.597.843 2.063.089.365-.591.293-.95-.161-.799-.453.151-.931-.175-1.063-.725-.131-.55.414-1.005 1.212-1.012.798-.006 2.03-.659 2.739-1.451 1.108-1.24 1.044-1.256-.462-.116-.974.737-1.75.875-1.75.312 0-1.447 3.253-5.095 4.852-5.441 3.131-.677 9.296-7.909 8.036-9.427-.882-1.062-1.407-1.144-1.929-.299-.52.843-.84.79-1.168-.192-.287-.862-2.682 1.002-6.603 5.137M367.158 621c0 1.375.227 1.938.504 1.25.278-.687.278-1.812 0-2.5-.277-.687-.504-.125-.504 1.25m22.881 2.666c-.816 1.295-1.309 1.467-1.68.584-.801-1.905-1.915-1.492-2.086.772-.088 1.17.285 1.751.887 1.379.672-.415.65.085-.06 1.413-1.639 3.061-1.36 5.05.65 4.653 7.142-1.413 7.633-1.613 6.198-2.52-.796-.504-.96-.923-.365-.932 1.676-.023 1.28-3.245-.653-5.32-1.681-1.805-1.772-1.806-2.891-.029m250.833 3.084c-1.243 1.586-1.208 1.621.378.378 1.666-1.307 2.195-2.128 1.372-2.128-.207 0-.995.788-1.75 1.75m-251.059 3.933c.721.289 1.584.253 1.916-.079.332-.332-.258-.568-1.312-.525-1.165.048-1.402.285-.604.604M287.35 649c-.573 2.864-.832 3-5.725 3.004-6.377.004-11.204 2.745-13.185 7.486-2.907 6.957-1.707 10.831 5.305 17.13l4.586 4.12-2.014 3.88c-2.412 4.649-4.407 4.953-5.78.88-1.299-3.855-2.223-4.466-6.787-4.485-3.568-.014-3.75.143-3.746 3.235.005 4.171 3.2 9.399 7.065 11.558 2.469 1.38 2.921 2.153 2.448 4.192-1.135 4.894-1.006 5.312 1.897 6.112 3.74 1.03 4.586.445 4.586-3.171 0-2.71.283-2.941 3.599-2.941 14.02 0 18.438-17.259 6.649-25.975l-2.871-2.123 2.061-4.45c2.439-5.264 2.92-5.416 4.567-1.439.802 1.935 2.187 3.217 3.872 3.583 1.442.314 3.203.751 3.911.971 3.818 1.185 2.335-8.29-1.972-12.598-2.851-2.85-3.023-3.388-2.074-6.48.988-3.22.898-3.419-2.003-4.43-3.966-1.383-3.701-1.5-4.389 1.941m334.861-.399c-.71.769-.849 1.399-.309 1.399 1.038 0 2.541-1.902 1.948-2.466-.192-.183-.93.297-1.639 1.067m-184.884 3.624c-5.343 1.718-9.538 6.919-10.074 12.489-.473 4.93 3.536 22.864 6.361 28.448 6.39 12.634 29.41 6.644 29.377-7.644-.012-4.785-5.948-25.278-8.413-29.039-3.127-4.772-10.21-6.519-17.251-4.254m-158.672 9.604c-2.196 2.426-2.088 4.469.351 6.677 2.318 2.097 2.326 2.091 3.845-2.404 1.748-5.172-.922-7.891-4.196-4.273m36.022-.079c-.243.413-.761 2.325-1.15 4.25-.39 1.925-1.856 7.246-3.259 11.824-3.225 10.527-2.47 11.799 6.797 11.452 8.821-.331 12.925 4.969 8.185 10.571-3.107 3.672-6.78 3.777-10.264.293-1.685-1.685-4.621-3.356-6.525-3.713l-3.461-.65v4.189c0 12.329 21.412 16.492 28.578 5.556 2.479-3.785 3.023-13.459.978-17.414-1.841-3.561-8.145-7.049-12.806-7.086-3.112-.025-3.135-.097-1.665-5.39 1.048-3.774 1.163-3.853 4.745-3.234 2.018.348 5.548.908 7.842 1.243l4.173.61 1.238-4.132c1.573-5.252 1.991-4.973-10.76-7.182-12.701-2.199-12.085-2.142-12.646-1.187m122.846 1.224c-2.642 2.92.978 20.719 5.3 26.055 2.267 2.8 7.472 1.977 9.781-1.548 1.681-2.565-1.862-19.173-5.166-24.216-1.923-2.936-7.376-3.096-9.915-.291m-41.276-.268c-3.806.733-8.998 6.454-9.829 10.832-1.097 5.772 1.231 27.178 3.349 30.794 6.913 11.803 26.381 8.857 29.37-4.445 1.196-5.324-1.532-24.645-4.241-30.036-3.231-6.43-9.63-8.881-18.649-7.145m-43.04 3.74c-5.548 2.516-7.201 7.889-7.456 24.236-.305 19.566 2.454 23.685 15.926 23.776 12.497.085 15.585-5.025 15.083-24.958-.381-15.137-1.458-18.945-6.245-22.082-3.476-2.278-13.221-2.824-17.308-.972m45.541 5.727c-3.734 1.35-4.252 4.207-2.945 16.231 1.172 10.788 2.739 13.596 7.585 13.596 6.482 0 7.729-4.408 5.495-19.428-1.519-10.213-3.898-12.654-10.135-10.399m177.01.803c-1.382 1.087-2.762 2.931-3.067 4.099-.649 2.48.121 1.911 1.766-1.307.638-1.248 1.921-2.205 2.851-2.129.931.076 1.692-.486 1.692-1.25 0-1.809-.255-1.763-3.242.587M358 675.288c-2.441 1.238-2.507 1.564-2.778 13.76-.318 14.292.391 16.285 5.792 16.285 5.668 0 6.986-2.811 6.986-14.897 0-10.315-1.187-15.436-3.579-15.436-.691 0-1.857-.22-2.589-.49-.733-.269-2.457.081-3.832.778m-79.495 8.962c-.36 1.788-.887 4.071-1.171 5.075-.426 1.506-.02 1.769 2.325 1.5 3.213-.368 4.344-4.082 2.367-7.776-1.573-2.94-2.77-2.532-3.521 1.201m306.828-.794c0 .801.383 1.22.85.931.467-.289.591-.944.274-1.456-.808-1.308-1.124-1.161-1.124.525m-16.125 6.352c-2.16 1.662-2.177 1.763-.297 1.763 1.096 0 1.794-.199 1.55-.443s.058-1.048.67-1.786c1.508-1.817.831-1.653-1.923.466M146 692.378c0 .207.787.995 1.75 1.75 1.586 1.243 1.621 1.208.378-.378-1.307-1.666-2.128-2.195-2.128-1.372m401.872 3.372c-1.269 1.619-1.222 1.64.628.283 1.1-.807 2.188-1.594 2.417-1.75.229-.156-.054-.283-.628-.283s-1.662.788-2.417 1.75m11.635 1.239c-.35.566.051.734.941.393 1.732-.665 2.049-1.382.611-1.382-.518 0-1.216.445-1.552.989m4 0c-.35.566.051.734.941.393 1.732-.665 2.049-1.382.611-1.382-.518 0-1.216.445-1.552.989M154 698.378c0 .207.787.995 1.75 1.75 1.586 1.243 1.621 1.208.378-.378-1.307-1.666-2.128-2.195-2.128-1.372m392.543 7.553c-.317.512-.193 1.167.274 1.456.467.289.85-.13.85-.931 0-1.686-.316-1.833-1.124-.525m-5.404 3.102c-1.298 1.082-1.887 1.967-1.309 1.967.579 0 1.354-.489 1.724-1.087.369-.598 1.487-.874 2.484-.613 1.245.325 1.646.039 1.28-.913-.697-1.816-1.343-1.716-4.179.646M169 709.332c0 .544 7.787 5.668 8.613 5.668.361 0-.416-.833-1.728-1.851-2.716-2.107-6.885-4.419-6.885-3.817m21 13.005c0 .677 7.185 4.811 7.615 4.381.199-.199-1.432-1.371-3.626-2.604S190 722.081 190 722.337m88.079 1.246c.048 1.165.285 1.402.604.605.289-.722.253-1.585-.079-1.917-.332-.332-.568.258-.525 1.312m-2.785 3.812c-.617 2.008-.705 3.605-.2 3.605.498 0 .951-1.013 1.006-2.25.095-2.159.132-2.148.9.25.644 2.01.806 2.108.83.5.069-4.667-1.381-5.87-2.536-2.105m-1.215 6.188c.048 1.165.285 1.402.604.605.289-.722.253-1.585-.079-1.917-.332-.332-.568.258-.525 1.312M210 733.452c0 .919 17.903 8.844 30.5 13.501 15.068 5.57 17.5 6.361 17.5 5.692 0-.269-1.687-1.032-3.75-1.695-6.576-2.113-32.886-12.732-38.128-15.388-5.097-2.583-6.122-2.936-6.122-2.11M263.5 755c2.96 1.272 6.468 1.272 4.5 0-.825-.533-2.625-.945-4-.914-2.29.05-2.332.127-.5.914m175.429 4.439c-11.323 2.692-14.148 3.751-7.929 2.973 5.755-.72 16.215-3.454 17.45-4.561.522-.468.747-.814.5-.769-.248.045-4.757 1.105-10.021 2.357m-122.838 7.458c4.655 2.997 70.045 4.052 79.909 1.288 4.571-1.28 3.441-1.295-15.383-.192-14.544.852-35.957.297-58.617-1.519-5.294-.425-7.032-.3-5.909.423" fill-rule="evenodd"/>
</svg>