<!DOCTYPE svg PUBLIC "-//W3C//DTD SVG 1.1//EN" "http://www.w3.org/Graphics/SVG/1.1/DTD/svg11.dtd">
<!-- Uploaded to: vectormixer, www.vectormixer.com, Transformed by: Vectormixer Mixer Tools -->
<svg height="360px" width="360px" xmlns="http://www.w3.org/2000/svg" viewBox="0 0 1024 1024" fill="#000000" stroke="#000000" stroke-width="0.01024">
<g id="SVGRepo_bgCarrier" stroke-width="0"/>
<g id="SVGRepo_tracerCarrier" stroke-linecap="round" stroke-linejoin="round"/>
<g id="SVGRepo_iconCarrier"> <path fill="#FFC107" d="M488 151.424c-161.183 17.025-286.954 124.165-326.491 278.125-38.57 150.196 27.516 309.945 161.128 389.496 124.071 73.87 264.383 74.606 385.363 2.02 152.832-91.696 215.134-277.89 147.751-441.565C805.293 256.934 690.489 169.382 558 152.428c-16.853-2.157-54.037-2.69-70-1.004m4 50.262c-69.296 5.181-138.574 35.121-191.133 82.603-18.726 16.918-21.615 21.918-17.369 30.059 1.472 2.823 1.413 2.938-6.685 13-14.644 18.196-27.954 40.184-35.503 58.652-2.36 5.775-4.32 10.95-4.355 11.5-.034.55-2.643 2.26-5.796 3.8-11.769 5.746-21.749 17.568-27.035 32.024L201.5 440.5v119l2.4 7.328c5.944 18.144 21.046 33.087 39.1 38.688 4.066 1.261 10.633 1.84 25.183 2.221l19.683.515 2.149-7.376c1.183-4.057 2.563-8.681 3.068-10.275 1.811-5.725 2.113-5.601-13.615-5.601-16.225 0-19.439-.8-23.738-5.909-4.845-5.758-4.863-6.078-4.537-82.091l.307-71.5 2.3-3.7c4.136-6.651 7.24-7.8 21.068-7.8H287v28.365c0 26.688.116 28.513 1.966 30.865 2.845 3.617 7.49 5.339 10.59 3.927l2.465-1.124-.26-42.766-.261-42.767-18.687-.5-18.687-.5 4.913-9.882c6.479-13.029 18.21-30.523 26.11-38.935l6.351-6.764 4.26 2.15c7.013 3.539 9.548 2.444 21.975-9.5 28.838-27.717 53.645-43.284 91.706-57.547 100.191-37.546 213.219-14.952 286.785 57.328 12.308 12.093 16.297 13.609 23.609 8.973 2.912-1.846 3.665-1.234 13.151 10.677 10.607 13.319 27.01 39.867 27.015 43.725.001.426-8.549.644-19 .483L732 389.916v42.387c0 39.794.112 42.488 1.829 44.042 2.367 2.142 3.958 2.082 7.86-.297 4.786-2.918 5.299-6.381 5.305-35.798L747 414h11.766c13.993 0 17.363 1.285 21.234 8.099l2.5 4.401.276 70.797c.287 73.541.169 75.961-3.951 81.198-4.115 5.231-8.768 6.459-24.575 6.483-16.641.026-15.65-1.156-10.92 13.022l3.17 9.5 18.5-.013c19.694-.013 25.439-.869 34.531-5.147 13.186-6.203 25.071-20.274 30.091-35.625l2.686-8.215-.019-57.5c-.021-63.66-.054-64.039-6.618-76.5-4.004-7.601-15.465-19.147-22.786-22.953l-5.615-2.92-5.194-12.722c-8.413-20.604-22.419-43.365-37.478-60.905-3.564-4.15-5.355-7.042-4.956-8 4.435-10.652 2.225-15.463-13.699-29.81-68.72-61.914-154.994-92.154-243.943-85.504m-4.764 103.859c-65.4 8.408-118.377 40.333-141.626 85.347-12.982 25.136-16.033 40.876-17.59 90.767-1.825 58.507-3.441 75.359-9.525 99.359-8.465 33.397-25.842 67.436-49.759 97.475-12.237 15.37-11.573 19.484 2.606 16.142 25.513-6.015 50.09-27.214 69.472-59.924 3.723-6.283 6.783-10.502 6.961-9.598 1.186 6.006-7.436 34.789-15.867 52.969-8.859 19.102-5.59 21.628 12.421 9.599 10.011-6.685 28.505-24.554 35.171-33.981 3.867-5.469 7.275-7.625 6.241-3.95-12.583 44.752-14.951 58.029-15.137 84.846-.121 17.615.692 20.404 5.955 20.404 8.411 0 31.453-23.131 43.732-43.901 8.815-14.912 17.571-38.388 22.176-59.457.945-4.322 2.077-7.472 2.515-7 2.563 2.755 4.434 21.595 4.475 45.072.038 21.426.239 24.41 1.744 25.915 5.431 5.433 23.932-20.331 34.92-48.629 2.242-5.775 4.43-10.875 4.861-11.333.431-.458 1.004 11.242 1.273 26 .632 34.69 3.9 52.743 13.632 75.316 8.697 20.175 11.935 21.651 18.764 8.558 12.488-23.943 18.733-55.538 18.243-92.289-.224-16.78.443-20.893 2.391-14.752 9.404 29.64 31.204 62.25 38.195 57.138 1.575-1.151 1.762-3.811 1.916-27.207.164-24.786 2.156-44.431 4.506-44.431.357 0 1.912 5.513 3.455 12.25 9.677 42.249 30.791 77.996 56.02 94.843 11.775 7.863 14.586 5.053 14.608-14.599.026-22.852-2.6-40.186-10.648-70.269-4.685-17.516-4.918-21.135-1.008-15.723 17.575 24.331 52.532 50.787 54.939 41.579.284-1.082-1.569-6.421-4.25-12.25-9.092-19.767-14.504-36.548-16.508-51.188-.826-6.039.503-5.524 4.109 1.592 7.685 15.165 23.586 35.574 34.751 44.602 17.831 14.419 42.237 24.543 47.557 19.729 2.506-2.268 2.116-3.094-6.879-14.566-32.168-41.025-50.963-83.938-56.503-129.014-1.716-13.957-3.502-50.895-3.529-72.986-.087-70.562-22.949-114.588-75.591-145.57-39.158-23.045-93.579-33.264-143.189-26.885M382.5 388.688c-9.158 1.983-19.15 4.654-19.843 5.306-.464.436 1.668 1.732 4.738 2.881 7.355 2.752 19.605 8.947 19.605 9.915 0 .421-.675 1.729-1.5 2.906-.825 1.178-2.218 4.946-3.096 8.374-7.268 28.366 25.165 50.578 48.981 33.544 10.387-7.43 14.131-15.147 13.939-28.734l-.135-9.62 5.934-1.797 5.934-1.797-11.779-3.367c-6.478-1.852-20.103-6.02-30.278-9.262-16.32-5.201-23.78-7.38-29-8.469-.825-.172-2.4-.118-3.5.12m260 .82c-2.573.9-46.077 14.699-54.5 17.286-7.133 2.191-9.002 3.1-7.5 3.647 1.1.401 3.575 1.383 5.5 2.183l3.5 1.454-.35 8.401c-.5 11.989 1.464 17.312 9.261 25.11 24.331 24.331 64.336-1.067 52.456-33.301-1.173-3.184-2.587-6.361-3.143-7.062-.555-.701-.832-1.444-.617-1.65.644-.617 20.198-9.252 22.744-10.044 3.708-1.153 1.366-2.339-8.888-4.504-8.634-1.822-15.893-2.42-18.463-1.52m-136 7.918c-28.367 5.486-47.345 27.112-51.411 58.586-1.128 8.727-.88 12.226 2.37 33.488.841 5.5 1.532 11.688 1.535 13.75L459 507h-17.423c-17.186 0-17.465.035-20.434 2.533-5.248 4.416-6.184 11.328-2.336 17.268 3.096 4.78 5.486 5.199 29.683 5.199 31.882 0 31.71-.127 50.698 37.489C511.82 594.512 514.537 599 517.056 599c2.359 0 7.003-7.535 16.595-26.927 9.543-19.291 14.357-27.331 19.698-32.903 6.862-7.159 6.912-7.17 31.633-7.17 24.925 0 27.307-.496 30.986-6.448 3.557-5.756 1.564-13.192-4.624-17.246-2.272-1.489-4.932-1.686-19.635-1.455l-17.007.268.66-7.109c.364-3.91 1.603-12.824 2.754-19.81 4.03-24.463-.07-43.304-13.213-60.712-13.085-17.331-36.712-26.256-58.403-22.062m-2.2 24.436c-20.487 7.079-30.967 29.331-26.367 55.984 1.137 6.587 2.092 15.729 2.123 20.315l.055 8.339 6.029 3.881c10.29 6.624 24.789 27.711 30.283 44.041.484 1.439 2.388-1.578 7.573-12 3.81-7.657 8.973-16.506 11.474-19.664 4.662-5.888 15.047-14.756 17.28-14.757.911-.001 1.25-2.54 1.25-9.362 0-5.608.85-13.525 2.122-19.75 7.741-37.91-19.713-68.122-51.822-57.027m-11.856 20.388c-8.468 7.803-7.082 20.365 1.454 13.183 3.333-2.805 9.102-10.595 9.102-12.292 0-4.601-5.982-5.106-10.556-.891m40.127-1.679c-1.9 1.9-1.893 1.727-.219 5.711 1.685 4.008 10.188 11.956 12.338 11.532 4.851-.955 4.04-8.607-1.554-14.667-4.141-4.485-7.77-5.37-10.565-2.576" fill-rule="evenodd"/> </g>
</svg>